<svg xmlns="http://www.w3.org/2000/svg" viewBox="0 0 800 360"><defs><linearGradient id="bg" x2="0" y2="1"><stop stop-color="#1d2a2d"/><stop offset="1" stop-color="#090d0e"/></linearGradient><linearGradient id="m"><stop stop-color="#777f77"/><stop offset=".5" stop-color="#343d38"/><stop offset="1" stop-color="#141b18"/></linearGradient></defs><rect width="800" height="360" fill="url(#bg)"/><circle cx="600" cy="95" r="160" fill="#8cb4aa" opacity=".09"/><path d="M58 218 L142 198 209 198 236 207 475 207 502 214 710 214 732 223 732 233 503 233 481 244 270 244 241 258 208 258 188 239 140 239 80 246Z" fill="url(#m)" stroke="#9ca99c" stroke-width="3"/><path d="M166 199 L180 170 242 170 251 207 225 219Z" fill="#202923" stroke="#8d9a8f" stroke-width="3"/><path d="M199 171 L199 147 233 147 233 171" fill="#343e37" stroke="#a4b0a3" stroke-width="3"/><path d="M208 144 L208 126 226 126 226 144" fill="#151c18" stroke="#9eab9d" stroke-width="3"/><path d="M251 207 L285 207 299 243 268 243Z" fill="#111713" stroke="#768278" stroke-width="3"/><path d="M334 207 L355 207 367 305 340 310Z" fill="#171e19" stroke="#7d8a7f" stroke-width="3"/><path d="M478 208 L490 182 519 182 519 215" fill="#303a33" stroke="#8d9a8e" stroke-width="3"/><path d="M500 214 L716 214 733 221 733 229 500 229Z" fill="#666f66" stroke="#a9b4a8" stroke-width="3"/><path d="M60 218 L135 218 156 231 136 241 70 242Z" fill="#1a211c" stroke="#899589" stroke-width="3"/><path d="M310 193 L448 193 448 205 310 205Z" fill="#121814" stroke="#899589" stroke-width="2"/><path d="M329 188 L329 180 431 180 431 188" fill="#1c251f" stroke="#9ca99c" stroke-width="2"/><text x="36" y="48" fill="#c2d2c4" font-family="Arial" font-size="19" letter-spacing="5">ZONE ARMORY / 03</text><text x="36" y="325" fill="#b4b9a8" font-family="Arial" font-size="14" letter-spacing="3">SNIPER RIFLE • CONCEPT ART</text></svg>